# xmcd
#
# Track frame offsets:
#	150
#	17132
#	39026
#	59116
#	84376
#	104663
#	127624
#	145375
#	152551
#
# Disc length: 2129
#
# Revision: 1
# Processed by: cddbd v1.5.1PL0 Copyright (c) Steve Scherf et al.
# Submitted via: CDex 1.50
# Normalized: r0:TDELIM( - )
#
DISCID=6e084f09
DTITLE=Verve Music Group - Live Your Life With Temptation
DYEAR=2004
DGENRE=Jazz
TTITLE0=George Benson - Cell Phone
TTITLE1=Gerald Albright - Condition of My Heart
TTITLE2=Diana Krall - Temptation
TTITLE3=Jamie Cullum - Frontin
TTITLE4=Paul Brown - Moment by Moment
TTITLE5=Lizz Wright - Open Your Eyes, You Can Fly
TTITLE6=Will Downing - A Million Ways
TTITLE7=Al Jarreau - Cold Duck
TTITLE8=Various Artist - Any Love
EXTD=YEAR: 2004
EXTT0=
EXTT1=
EXTT2=
EXTT3=
EXTT4=
EXTT5=
EXTT6=
EXTT7=
EXTT8=
PLAYORDER=
